<?xml version="1.0" encoding="UTF-8" standalone="no"?>
<!DOCTYPE svg PUBLIC "-//W3C//DTD SVG 1.1//EN"
 "http://www.w3.org/Graphics/SVG/1.1/DTD/svg11.dtd">
<!-- Generated by graphviz version 2.38.0 (20140413.2041)
 -->
<!-- Title: G Pages: 1 -->
<svg width="1022pt" height="2354pt"
 viewBox="0.00 0.00 1021.96 2354.00" xmlns="http://www.w3.org/2000/svg" xmlns:xlink="http://www.w3.org/1999/xlink">
<g id="graph0" class="graph" transform="scale(1 1) rotate(0) translate(4 2350)">
<title>G</title>
<polygon fill="white" stroke="none" points="-4,4 -4,-2350 1017.96,-2350 1017.96,4 -4,4"/>
<g id="clust1" class="cluster"><title>cluster_Global</title>
<path fill="none" stroke="gray" d="M20,-368C20,-368 993.956,-368 993.956,-368 999.956,-368 1005.96,-374 1005.96,-380 1005.96,-380 1005.96,-2326 1005.96,-2326 1005.96,-2332 999.956,-2338 993.956,-2338 993.956,-2338 20,-2338 20,-2338 14,-2338 8,-2332 8,-2326 8,-2326 8,-380 8,-380 8,-374 14,-368 20,-368"/>
<text text-anchor="middle" x="506.978" y="-2325.2" font-family="Times,serif" font-size="11.00" fill="gray">Global</text>
</g>
<g id="clust2" class="cluster"><title>cluster_\WebService</title>
<path fill="none" stroke="gray" d="M28,-376C28,-376 985.956,-376 985.956,-376 991.956,-376 997.956,-382 997.956,-388 997.956,-388 997.956,-2298 997.956,-2298 997.956,-2304 991.956,-2310 985.956,-2310 985.956,-2310 28,-2310 28,-2310 22,-2310 16,-2304 16,-2298 16,-2298 16,-388 16,-388 16,-382 22,-376 28,-376"/>
<text text-anchor="middle" x="506.978" y="-2297.2" font-family="Times,serif" font-size="11.00" fill="gray">WebService</text>
</g>
<g id="clust3" class="cluster"><title>cluster_\WebService\WebServiceBundle</title>
<path fill="none" stroke="gray" d="M36,-384C36,-384 977.956,-384 977.956,-384 983.956,-384 989.956,-390 989.956,-396 989.956,-396 989.956,-2270 989.956,-2270 989.956,-2276 983.956,-2282 977.956,-2282 977.956,-2282 36,-2282 36,-2282 30,-2282 24,-2276 24,-2270 24,-2270 24,-396 24,-396 24,-390 30,-384 36,-384"/>
<text text-anchor="middle" x="506.978" y="-2269.2" font-family="Times,serif" font-size="11.00" fill="gray">WebServiceBundle</text>
</g>
<g id="clust4" class="cluster"><title>cluster_\WebService\WebServiceBundle\Form</title>
<path fill="none" stroke="gray" d="M822.956,-1670C822.956,-1670 912.956,-1670 912.956,-1670 918.956,-1670 924.956,-1676 924.956,-1682 924.956,-1682 924.956,-2000 924.956,-2000 924.956,-2006 918.956,-2012 912.956,-2012 912.956,-2012 822.956,-2012 822.956,-2012 816.956,-2012 810.956,-2006 810.956,-2000 810.956,-2000 810.956,-1682 810.956,-1682 810.956,-1676 816.956,-1670 822.956,-1670"/>
<text text-anchor="middle" x="867.956" y="-1999.2" font-family="Times,serif" font-size="11.00" fill="gray">Form</text>
</g>
<g id="clust5" class="cluster"><title>cluster_\WebService\WebServiceBundle\Tests</title>
<path fill="none" stroke="gray" d="M781.456,-1076C781.456,-1076 954.456,-1076 954.456,-1076 960.456,-1076 966.456,-1082 966.456,-1088 966.456,-1088 966.456,-1650 966.456,-1650 966.456,-1656 960.456,-1662 954.456,-1662 954.456,-1662 781.456,-1662 781.456,-1662 775.456,-1662 769.456,-1656 769.456,-1650 769.456,-1650 769.456,-1088 769.456,-1088 769.456,-1082 775.456,-1076 781.456,-1076"/>
<text text-anchor="middle" x="867.956" y="-1649.2" font-family="Times,serif" font-size="11.00" fill="gray">Tests</text>
</g>
<g id="clust6" class="cluster"><title>cluster_\WebService\WebServiceBundle\Tests\Controller</title>
<path fill="none" stroke="gray" d="M789.456,-1238C789.456,-1238 946.456,-1238 946.456,-1238 952.456,-1238 958.456,-1244 958.456,-1250 958.456,-1250 958.456,-1622 958.456,-1622 958.456,-1628 952.456,-1634 946.456,-1634 946.456,-1634 789.456,-1634 789.456,-1634 783.456,-1634 777.456,-1628 777.456,-1622 777.456,-1622 777.456,-1250 777.456,-1250 777.456,-1244 783.456,-1238 789.456,-1238"/>
<text text-anchor="middle" x="867.956" y="-1621.2" font-family="Times,serif" font-size="11.00" fill="gray">Controller</text>
</g>
<g id="clust7" class="cluster"><title>cluster_\WebService\WebServiceBundle\Controller</title>
<path fill="none" stroke="gray" d="M792.956,-572C792.956,-572 942.956,-572 942.956,-572 948.956,-572 954.956,-578 954.956,-584 954.956,-584 954.956,-1010 954.956,-1010 954.956,-1016 948.956,-1022 942.956,-1022 942.956,-1022 792.956,-1022 792.956,-1022 786.956,-1022 780.956,-1016 780.956,-1010 780.956,-1010 780.956,-584 780.956,-584 780.956,-578 786.956,-572 792.956,-572"/>
<text text-anchor="middle" x="867.956" y="-1009.2" font-family="Times,serif" font-size="11.00" fill="gray">Controller</text>
</g>
<g id="clust8" class="cluster"><title>cluster_\WebService\WebServiceBundle\DependencyInjection</title>
<path fill="none" stroke="gray" d="M765.956,-438C765.956,-438 969.956,-438 969.956,-438 975.956,-438 981.956,-444 981.956,-450 981.956,-450 981.956,-552 981.956,-552 981.956,-558 975.956,-564 969.956,-564 969.956,-564 765.956,-564 765.956,-564 759.956,-564 753.956,-558 753.956,-552 753.956,-552 753.956,-450 753.956,-450 753.956,-444 759.956,-438 765.956,-438"/>
<text text-anchor="middle" x="867.956" y="-551.2" font-family="Times,serif" font-size="11.00" fill="gray">DependencyInjection</text>
</g>
<g id="clust9" class="cluster"><title>cluster_\WebService\WebServiceBundle\Entity</title>
<path fill="none" stroke="gray" d="M44,-2020C44,-2020 892.456,-2020 892.456,-2020 898.456,-2020 904.456,-2026 904.456,-2032 904.456,-2032 904.456,-2242 904.456,-2242 904.456,-2248 898.456,-2254 892.456,-2254 892.456,-2254 44,-2254 44,-2254 38,-2254 32,-2248 32,-2242 32,-2242 32,-2032 32,-2032 32,-2026 38,-2020 44,-2020"/>
<text text-anchor="middle" x="468.228" y="-2241.2" font-family="Times,serif" font-size="11.00" fill="gray">Entity</text>
</g>
<!-- \\WebService\\WebServiceBundle\\Form\\RegisterType -->
<g id="node1" class="node"><title>\\WebService\\WebServiceBundle\\Form\\RegisterType</title>
<polygon fill="none" stroke="black" points="916.956,-1984 818.956,-1984 818.956,-1948 916.956,-1948 916.956,-1984"/>
<text text-anchor="middle" x="867.956" y="-1963.2" font-family="Courier,monospace" font-size="11.00">RegisterType</text>
</g>
<!-- \\Symfony\\Component\\Form\\AbstractType -->
<g id="node36" class="node"><title>\\Symfony\\Component\\Form\\AbstractType</title>
<ellipse fill="none" stroke="black" cx="442.978" cy="-342" rx="161.671" ry="18"/>
<text text-anchor="middle" x="442.978" y="-338.3" font-family="Times,serif" font-size="14.00" fill="gray">\Symfony\Component\Form\AbstractType</text>
</g>
<!-- \\WebService\\WebServiceBundle\\Form\\RegisterType&#45;&gt;\\Symfony\\Component\\Form\\AbstractType -->
<g id="edge1" class="edge"><title>\\WebService\\WebServiceBundle\\Form\\RegisterType&#45;&gt;\\Symfony\\Component\\Form\\AbstractType</title>
<path fill="none" stroke="black" d="M818.774,-1965.97C796.146,-1963.38 770.561,-1956.33 753.956,-1939 525.513,-1700.56 455.773,-565.276 445.409,-370.478"/>
<polygon fill="none" stroke="black" points="448.89,-370.014 444.872,-360.211 441.899,-370.38 448.89,-370.014"/>
</g>
<!-- \\WebService\\WebServiceBundle\\Form\\PersoType -->
<g id="node2" class="node"><title>\\WebService\\WebServiceBundle\\Form\\PersoType</title>
<polygon fill="none" stroke="black" points="906.456,-1930 829.456,-1930 829.456,-1894 906.456,-1894 906.456,-1930"/>
<text text-anchor="middle" x="867.956" y="-1909.2" font-family="Courier,monospace" font-size="11.00">PersoType</text>
</g>
<!-- \\WebService\\WebServiceBundle\\Form\\PersoType&#45;&gt;\\Symfony\\Component\\Form\\AbstractType -->
<g id="edge2" class="edge"><title>\\WebService\\WebServiceBundle\\Form\\PersoType&#45;&gt;\\Symfony\\Component\\Form\\AbstractType</title>
<path fill="none" stroke="black" d="M829.379,-1912.85C804.605,-1911.32 773.278,-1905.04 753.956,-1885 532.549,-1655.41 457.168,-561.25 445.614,-370.42"/>
<polygon fill="none" stroke="black" points="449.102,-370.115 445.012,-360.341 442.114,-370.532 449.102,-370.115"/>
</g>
<!-- \\WebService\\WebServiceBundle\\Form\\StuffType -->
<g id="node3" class="node"><title>\\WebService\\WebServiceBundle\\Form\\StuffType</title>
<polygon fill="none" stroke="black" points="906.456,-1876 829.456,-1876 829.456,-1840 906.456,-1840 906.456,-1876"/>
<text text-anchor="middle" x="867.956" y="-1855.2" font-family="Courier,monospace" font-size="11.00">StuffType</text>
</g>
<!-- \\WebService\\WebServiceBundle\\Form\\StuffType&#45;&gt;\\Symfony\\Component\\Form\\AbstractType -->
<g id="edge3" class="edge"><title>\\WebService\\WebServiceBundle\\Form\\StuffType&#45;&gt;\\Symfony\\Component\\Form\\AbstractType</title>
<path fill="none" stroke="black" d="M829.424,-1858.81C804.67,-1857.25 773.348,-1850.97 753.956,-1831 539.549,-1610.22 458.593,-556.92 445.828,-370.297"/>
<polygon fill="none" stroke="black" points="449.311,-369.931 445.145,-360.19 442.327,-370.403 449.311,-369.931"/>
</g>
<!-- \\WebService\\WebServiceBundle\\Form\\GuildType -->
<g id="node4" class="node"><title>\\WebService\\WebServiceBundle\\Form\\GuildType</title>
<polygon fill="none" stroke="black" points="906.456,-1822 829.456,-1822 829.456,-1786 906.456,-1786 906.456,-1822"/>
<text text-anchor="middle" x="867.956" y="-1801.2" font-family="Courier,monospace" font-size="11.00">GuildType</text>
</g>
<!-- \\WebService\\WebServiceBundle\\Form\\GuildType&#45;&gt;\\Symfony\\Component\\Form\\AbstractType -->
<g id="edge4" class="edge"><title>\\WebService\\WebServiceBundle\\Form\\GuildType&#45;&gt;\\Symfony\\Component\\Form\\AbstractType</title>
<path fill="none" stroke="black" d="M829.203,-1804.74C804.512,-1803.14 773.352,-1796.82 753.956,-1777 546.52,-1564.99 460.05,-552.348 446.052,-370.124"/>
<polygon fill="none" stroke="black" points="449.531,-369.716 445.284,-360.01 442.551,-370.246 449.531,-369.716"/>
</g>
<!-- \\WebService\\WebServiceBundle\\Form\\HelmetType -->
<g id="node5" class="node"><title>\\WebService\\WebServiceBundle\\Form\\HelmetType</title>
<polygon fill="none" stroke="black" points="909.956,-1768 825.956,-1768 825.956,-1732 909.956,-1732 909.956,-1768"/>
<text text-anchor="middle" x="867.956" y="-1747.2" font-family="Courier,monospace" font-size="11.00">HelmetType</text>
</g>
<!-- \\WebService\\WebServiceBundle\\Form\\HelmetType&#45;&gt;\\Symfony\\Component\\Form\\AbstractType -->
<g id="edge5" class="edge"><title>\\WebService\\WebServiceBundle\\Form\\HelmetType&#45;&gt;\\Symfony\\Component\\Form\\AbstractType</title>
<path fill="none" stroke="black" d="M825.714,-1750.43C801.666,-1748.44 772.511,-1741.81 753.956,-1723 553.673,-1519.95 461.733,-549.583 446.335,-370.462"/>
<polygon fill="none" stroke="black" points="449.803,-369.934 445.468,-360.266 442.828,-370.527 449.803,-369.934"/>
</g>
<!-- \\WebService\\WebServiceBundle\\Form\\BootType -->
<g id="node6" class="node"><title>\\WebService\\WebServiceBundle\\Form\\BootType</title>
<polygon fill="none" stroke="black" points="903.456,-1714 832.456,-1714 832.456,-1678 903.456,-1678 903.456,-1714"/>
<text text-anchor="middle" x="867.956" y="-1693.2" font-family="Courier,monospace" font-size="11.00">BootType</text>
</g>
<!-- \\WebService\\WebServiceBundle\\Form\\BootType&#45;&gt;\\Symfony\\Component\\Form\\AbstractType -->
<g id="edge6" class="edge"><title>\\WebService\\WebServiceBundle\\Form\\BootType&#45;&gt;\\Symfony\\Component\\Form\\AbstractType</title>
<path fill="none" stroke="black" d="M832.256,-1686.75C806.87,-1678.2 773.567,-1662.97 753.956,-1638 588.808,-1427.69 469.153,-540.381 447.499,-370.266"/>
<polygon fill="none" stroke="black" points="450.942,-369.595 446.215,-360.113 443.997,-370.473 450.942,-369.595"/>
</g>
<!-- \\WebService\\WebServiceBundle\\Tests\\Controller\\DefaultControllerTest -->
<g id="node7" class="node"><title>\\WebService\\WebServiceBundle\\Tests\\Controller\\DefaultControllerTest</title>
<polygon fill="none" stroke="black" points="946.956,-1606 788.956,-1606 788.956,-1570 946.956,-1570 946.956,-1606"/>
<text text-anchor="middle" x="867.956" y="-1585.2" font-family="Courier,monospace" font-size="11.00">DefaultControllerTest</text>
</g>
<!-- \\Symfony\\Bundle\\FrameworkBundle\\Test\\WebTestCase -->
<g id="node37" class="node"><title>\\Symfony\\Bundle\\FrameworkBundle\\Test\\WebTestCase</title>
<ellipse fill="none" stroke="black" cx="442.978" cy="-288" rx="211.762" ry="18"/>
<text text-anchor="middle" x="442.978" y="-284.3" font-family="Times,serif" font-size="14.00" fill="gray">\Symfony\Bundle\FrameworkBundle\Test\WebTestCase</text>
</g>
<!-- \\WebService\\WebServiceBundle\\Tests\\Controller\\DefaultControllerTest&#45;&gt;\\Symfony\\Bundle\\FrameworkBundle\\Test\\WebTestCase -->
<g id="edge9" class="edge"><title>\\WebService\\WebServiceBundle\\Tests\\Controller\\DefaultControllerTest&#45;&gt;\\Symfony\\Bundle\\FrameworkBundle\\Test\\WebTestCase</title>
<path fill="none" stroke="black" d="M788.692,-1583.05C775.346,-1578.69 762.92,-1571.78 753.956,-1561 665.311,-1454.42 785.096,-415.826 689.956,-315 653.677,-276.552 595.445,-268.827 544.746,-271.173"/>
<polygon fill="none" stroke="black" points="544.49,-267.682 534.716,-271.77 544.906,-274.669 544.49,-267.682"/>
</g>
<!-- \\WebService\\WebServiceBundle\\Tests\\Controller\\StuffControllerTest -->
<g id="node8" class="node"><title>\\WebService\\WebServiceBundle\\Tests\\Controller\\StuffControllerTest</title>
<polygon fill="none" stroke="black" points="940.456,-1552 795.456,-1552 795.456,-1516 940.456,-1516 940.456,-1552"/>
<text text-anchor="middle" x="867.956" y="-1531.2" font-family="Courier,monospace" font-size="11.00">StuffControllerTest</text>
</g>
<!-- \\WebService\\WebServiceBundle\\Tests\\Controller\\StuffControllerTest&#45;&gt;\\Symfony\\Bundle\\FrameworkBundle\\Test\\WebTestCase -->
<g id="edge10" class="edge"><title>\\WebService\\WebServiceBundle\\Tests\\Controller\\StuffControllerTest&#45;&gt;\\Symfony\\Bundle\\FrameworkBundle\\Test\\WebTestCase</title>
<path fill="none" stroke="black" d="M795.402,-1530.99C779.572,-1526.86 764.418,-1519.55 753.956,-1507 584.092,-1303.25 872.236,-507.724 689.956,-315 653.701,-276.668 595.621,-268.9 545,-271.194"/>
<polygon fill="none" stroke="black" points="544.762,-267.701 534.984,-271.78 545.171,-274.689 544.762,-267.701"/>
</g>
<!-- \\WebService\\WebServiceBundle\\Tests\\Controller\\BootControllerTest -->
<g id="node9" class="node"><title>\\WebService\\WebServiceBundle\\Tests\\Controller\\BootControllerTest</title>
<polygon fill="none" stroke="black" points="936.956,-1498 798.956,-1498 798.956,-1462 936.956,-1462 936.956,-1498"/>
<text text-anchor="middle" x="867.956" y="-1477.2" font-family="Courier,monospace" font-size="11.00">BootControllerTest</text>
</g>
<!-- \\WebService\\WebServiceBundle\\Tests\\Controller\\BootControllerTest&#45;&gt;\\Symfony\\Bundle\\FrameworkBundle\\Test\\WebTestCase -->
<g id="edge11" class="edge"><title>\\WebService\\WebServiceBundle\\Tests\\Controller\\BootControllerTest&#45;&gt;\\Symfony\\Bundle\\FrameworkBundle\\Test\\WebTestCase</title>
<path fill="none" stroke="black" d="M798.952,-1477.84C781.866,-1473.9 765.21,-1466.46 753.956,-1453 591.517,-1258.66 864.236,-498.798 689.956,-315 653.722,-276.787 595.792,-268.978 545.25,-271.218"/>
<polygon fill="none" stroke="black" points="545.031,-267.725 535.249,-271.794 545.434,-274.713 545.031,-267.725"/>
</g>
<!-- \\WebService\\WebServiceBundle\\Tests\\Controller\\HelmetControllerTest -->
<g id="node10" class="node"><title>\\WebService\\WebServiceBundle\\Tests\\Controller\\HelmetControllerTest</title>
<polygon fill="none" stroke="black" points="943.956,-1444 791.956,-1444 791.956,-1408 943.956,-1408 943.956,-1444"/>
<text text-anchor="middle" x="867.956" y="-1423.2" font-family="Courier,monospace" font-size="11.00">HelmetControllerTest</text>
</g>
<!-- \\WebService\\WebServiceBundle\\Tests\\Controller\\HelmetControllerTest&#45;&gt;\\Symfony\\Bundle\\FrameworkBundle\\Test\\WebTestCase -->
<g id="edge12" class="edge"><title>\\WebService\\WebServiceBundle\\Tests\\Controller\\HelmetControllerTest&#45;&gt;\\Symfony\\Bundle\\FrameworkBundle\\Test\\WebTestCase</title>
<path fill="none" stroke="black" d="M791.944,-1421.98C777.397,-1417.71 763.674,-1410.59 753.956,-1399 598.942,-1214.07 856.237,-489.872 689.956,-315 653.883,-277.063 596.419,-269.124 546.102,-271.221"/>
<polygon fill="none" stroke="black" points="545.604,-267.743 535.813,-271.791 545.992,-274.732 545.604,-267.743"/>
</g>
<!-- \\WebService\\WebServiceBundle\\Tests\\Controller\\PersoControllerTest -->
<g id="node11" class="node"><title>\\WebService\\WebServiceBundle\\Tests\\Controller\\PersoControllerTest</title>
<polygon fill="none" stroke="black" points="940.456,-1390 795.456,-1390 795.456,-1354 940.456,-1354 940.456,-1390"/>
<text text-anchor="middle" x="867.956" y="-1369.2" font-family="Courier,monospace" font-size="11.00">PersoControllerTest</text>
</g>
<!-- \\WebService\\WebServiceBundle\\Tests\\Controller\\PersoControllerTest&#45;&gt;\\Symfony\\Bundle\\FrameworkBundle\\Test\\WebTestCase -->
<g id="edge13" class="edge"><title>\\WebService\\WebServiceBundle\\Tests\\Controller\\PersoControllerTest&#45;&gt;\\Symfony\\Bundle\\FrameworkBundle\\Test\\WebTestCase</title>
<path fill="none" stroke="black" d="M795.183,-1368.85C779.457,-1364.71 764.406,-1357.43 753.956,-1345 606.366,-1169.47 848.239,-480.948 689.956,-315 653.894,-277.191 596.578,-269.213 546.343,-271.255"/>
<polygon fill="none" stroke="black" points="545.866,-267.776 536.071,-271.813 546.246,-274.765 545.866,-267.776"/>
</g>
<!-- \\WebService\\WebServiceBundle\\Tests\\Controller\\RegisterControllerTest -->
<g id="node12" class="node"><title>\\WebService\\WebServiceBundle\\Tests\\Controller\\RegisterControllerTest</title>
<polygon fill="none" stroke="black" points="950.456,-1336 785.456,-1336 785.456,-1300 950.456,-1300 950.456,-1336"/>
<text text-anchor="middle" x="867.956" y="-1315.2" font-family="Courier,monospace" font-size="11.00">RegisterControllerTest</text>
</g>
<!-- \\WebService\\WebServiceBundle\\Tests\\Controller\\RegisterControllerTest&#45;&gt;\\Symfony\\Bundle\\FrameworkBundle\\Test\\WebTestCase -->
<g id="edge14" class="edge"><title>\\WebService\\WebServiceBundle\\Tests\\Controller\\RegisterControllerTest&#45;&gt;\\Symfony\\Bundle\\FrameworkBundle\\Test\\WebTestCase</title>
<path fill="none" stroke="black" d="M785.376,-1311.76C773.331,-1307.38 762.216,-1300.79 753.956,-1291 613.788,-1124.88 840.243,-472.025 689.956,-315 653.898,-277.325 596.731,-269.308 546.58,-271.294"/>
<polygon fill="none" stroke="black" points="546.123,-267.814 536.324,-271.841 546.496,-274.804 546.123,-267.814"/>
</g>
<!-- \\WebService\\WebServiceBundle\\Tests\\Controller\\GuildControllerTest -->
<g id="node13" class="node"><title>\\WebService\\WebServiceBundle\\Tests\\Controller\\GuildControllerTest</title>
<polygon fill="none" stroke="black" points="940.456,-1282 795.456,-1282 795.456,-1246 940.456,-1246 940.456,-1282"/>
<text text-anchor="middle" x="867.956" y="-1261.2" font-family="Courier,monospace" font-size="11.00">GuildControllerTest</text>
</g>
<!-- \\WebService\\WebServiceBundle\\Tests\\Controller\\GuildControllerTest&#45;&gt;\\Symfony\\Bundle\\FrameworkBundle\\Test\\WebTestCase -->
<g id="edge15" class="edge"><title>\\WebService\\WebServiceBundle\\Tests\\Controller\\GuildControllerTest&#45;&gt;\\Symfony\\Bundle\\FrameworkBundle\\Test\\WebTestCase</title>
<path fill="none" stroke="black" d="M795.178,-1264.09C779.549,-1260.62 764.544,-1253.98 753.956,-1242 617.223,-1087.27 832.988,-463.93 689.956,-315 653.973,-277.533 597.103,-269.436 547.106,-271.324"/>
<polygon fill="none" stroke="black" points="546.686,-267.841 536.879,-271.85 547.046,-274.831 546.686,-267.841"/>
</g>
<!-- \\WebService\\WebServiceBundle\\Tests\\HelmetDbTest -->
<g id="node14" class="node"><title>\\WebService\\WebServiceBundle\\Tests\\HelmetDbTest</title>
<polygon fill="none" stroke="black" points="916.956,-1228 818.956,-1228 818.956,-1192 916.956,-1192 916.956,-1228"/>
<text text-anchor="middle" x="867.956" y="-1207.2" font-family="Courier,monospace" font-size="11.00">HelmetDbTest</text>
</g>
<!-- \\WebService\\WebServiceBundle\\Tests\\HelmetDbTest&#45;&gt;\\Symfony\\Bundle\\FrameworkBundle\\Test\\WebTestCase -->
<g id="edge8" class="edge"><title>\\WebService\\WebServiceBundle\\Tests\\HelmetDbTest&#45;&gt;\\Symfony\\Bundle\\FrameworkBundle\\Test\\WebTestCase</title>
<path fill="none" stroke="black" d="M818.733,-1210.87C795.665,-1208.58 769.705,-1201.51 753.956,-1183 628.629,-1035.69 824.255,-454.185 689.956,-315 654.025,-277.761 597.45,-269.588 547.613,-271.373"/>
<polygon fill="none" stroke="black" points="547.232,-267.887 537.418,-271.877 547.578,-274.879 547.232,-267.887"/>
</g>
<!-- \\WebService\\WebServiceBundle\\Tests\\BootDbTest -->
<g id="node15" class="node"><title>\\WebService\\WebServiceBundle\\Tests\\BootDbTest</title>
<polygon fill="none" stroke="black" points="909.956,-1174 825.956,-1174 825.956,-1138 909.956,-1138 909.956,-1174"/>
<text text-anchor="middle" x="867.956" y="-1153.2" font-family="Courier,monospace" font-size="11.00">BootDbTest</text>
</g>
<!-- \\WebService\\WebServiceBundle\\Tests\\BootDbTest&#45;&gt;\\Symfony\\Bundle\\FrameworkBundle\\Test\\WebTestCase -->
<g id="edge16" class="edge"><title>\\WebService\\WebServiceBundle\\Tests\\BootDbTest&#45;&gt;\\Symfony\\Bundle\\FrameworkBundle\\Test\\WebTestCase</title>
<path fill="none" stroke="black" d="M825.838,-1157.41C801.208,-1155.88 771.389,-1149.39 753.956,-1129 636.047,-991.086 816.263,-445.267 689.956,-315 654.074,-277.993 597.794,-269.745 548.118,-271.426"/>
<polygon fill="none" stroke="black" points="547.776,-267.938 537.954,-271.909 548.108,-274.93 547.776,-267.938"/>
</g>
<!-- \\WebService\\WebServiceBundle\\Tests\\GuildDbTest -->
<g id="node16" class="node"><title>\\WebService\\WebServiceBundle\\Tests\\GuildDbTest</title>
<polygon fill="none" stroke="black" points="913.456,-1120 822.456,-1120 822.456,-1084 913.456,-1084 913.456,-1120"/>
<text text-anchor="middle" x="867.956" y="-1099.2" font-family="Courier,monospace" font-size="11.00">GuildDbTest</text>
</g>
<!-- \\WebService\\WebServiceBundle\\Tests\\GuildDbTest&#45;&gt;\\Symfony\\Bundle\\FrameworkBundle\\Test\\WebTestCase -->
<g id="edge17" class="edge"><title>\\WebService\\WebServiceBundle\\Tests\\GuildDbTest&#45;&gt;\\Symfony\\Bundle\\FrameworkBundle\\Test\\WebTestCase</title>
<path fill="none" stroke="black" d="M822.421,-1105.26C798.625,-1104.42 770.835,-1098.82 753.956,-1080 640.067,-952.99 809.014,-437.178 689.956,-315 654.192,-278.299 598.353,-269.937 548.911,-271.474"/>
<polygon fill="none" stroke="black" points="548.626,-267.983 538.792,-271.927 548.939,-274.976 548.626,-267.983"/>
</g>
<!-- \\WebService\\WebServiceBundle\\Controller\\BootController -->
<g id="node17" class="node"><title>\\WebService\\WebServiceBundle\\Controller\\BootController</title>
<polygon fill="none" stroke="black" points="923.456,-940 812.456,-940 812.456,-904 923.456,-904 923.456,-940"/>
<text text-anchor="middle" x="867.956" y="-919.2" font-family="Courier,monospace" font-size="11.00">BootController</text>
</g>
<!-- \\Symfony\\Bundle\\FrameworkBundle\\Controller\\Controller -->
<g id="node38" class="node"><title>\\Symfony\\Bundle\\FrameworkBundle\\Controller\\Controller</title>
<ellipse fill="none" stroke="black" cx="442.978" cy="-234" rx="219.861" ry="18"/>
<text text-anchor="middle" x="442.978" y="-230.3" font-family="Times,serif" font-size="14.00" fill="gray">\Symfony\Bundle\FrameworkBundle\Controller\Controller</text>
</g>
<!-- \\WebService\\WebServiceBundle\\Controller\\BootController&#45;&gt;\\Symfony\\Bundle\\FrameworkBundle\\Controller\\Controller -->
<g id="edge18" class="edge"><title>\\WebService\\WebServiceBundle\\Controller\\BootController&#45;&gt;\\Symfony\\Bundle\\FrameworkBundle\\Controller\\Controller</title>
<path fill="none" stroke="black" d="M812.283,-921.889C791.061,-918.903 768.427,-911.552 753.956,-895 660.751,-788.394 789.648,-361.566 689.956,-261 682.941,-253.924 675.178,-247.908 666.861,-242.819"/>
<polygon fill="none" stroke="black" points="668.433,-239.688 658,-237.845 665.007,-245.792 668.433,-239.688"/>
</g>
<!-- \\WebService\\WebServiceBundle\\Controller\\DefaultController -->
<g id="node18" class="node"><title>\\WebService\\WebServiceBundle\\Controller\\DefaultController</title>
<polygon fill="none" stroke="black" points="933.456,-886 802.456,-886 802.456,-850 933.456,-850 933.456,-886"/>
<text text-anchor="middle" x="867.956" y="-865.2" font-family="Courier,monospace" font-size="11.00">DefaultController</text>
</g>
<!-- \\WebService\\WebServiceBundle\\Controller\\DefaultController&#45;&gt;\\Symfony\\Bundle\\FrameworkBundle\\Controller\\Controller -->
<g id="edge19" class="edge"><title>\\WebService\\WebServiceBundle\\Controller\\DefaultController&#45;&gt;\\Symfony\\Bundle\\FrameworkBundle\\Controller\\Controller</title>
<path fill="none" stroke="black" d="M802.366,-866.085C784.282,-862.313 766.235,-854.913 753.956,-841 582.35,-646.552 873.391,-444.33 689.956,-261 682.908,-253.956 675.119,-247.967 666.779,-242.9"/>
<polygon fill="none" stroke="black" points="668.336,-239.761 657.898,-237.947 664.927,-245.874 668.336,-239.761"/>
</g>
<!-- \\WebService\\WebServiceBundle\\Controller\\RegisterController -->
<g id="node19" class="node"><title>\\WebService\\WebServiceBundle\\Controller\\RegisterController</title>
<polygon fill="none" stroke="black" points="936.956,-832 798.956,-832 798.956,-796 936.956,-796 936.956,-832"/>
<text text-anchor="middle" x="867.956" y="-811.2" font-family="Courier,monospace" font-size="11.00">RegisterController</text>
</g>
<!-- \\WebService\\WebServiceBundle\\Controller\\RegisterController&#45;&gt;\\Symfony\\Bundle\\FrameworkBundle\\Controller\\Controller -->
<g id="edge20" class="edge"><title>\\WebService\\WebServiceBundle\\Controller\\RegisterController&#45;&gt;\\Symfony\\Bundle\\FrameworkBundle\\Controller\\Controller</title>
<path fill="none" stroke="black" d="M798.926,-811.215C782.049,-807.235 765.507,-799.942 753.956,-787 597.141,-611.301 857.457,-426.544 689.956,-261 682.813,-253.94 674.922,-247.944 666.481,-242.877"/>
<polygon fill="none" stroke="black" points="667.941,-239.685 657.493,-237.927 664.564,-245.817 667.941,-239.685"/>
</g>
<!-- \\WebService\\WebServiceBundle\\Controller\\DefaultRestController -->
<g id="node20" class="node"><title>\\WebService\\WebServiceBundle\\Controller\\DefaultRestController</title>
<polygon fill="none" stroke="black" points="946.956,-616 788.956,-616 788.956,-580 946.956,-580 946.956,-616"/>
<text text-anchor="middle" x="867.956" y="-595.2" font-family="Courier,monospace" font-size="11.00">DefaultRestController</text>
</g>
<!-- \\FOS\\RestBundle\\Controller\\FOSRestController -->
<g id="node39" class="node"><title>\\FOS\\RestBundle\\Controller\\FOSRestController</title>
<ellipse fill="none" stroke="black" cx="442.978" cy="-180" rx="181.168" ry="18"/>
<text text-anchor="middle" x="442.978" y="-176.3" font-family="Times,serif" font-size="14.00" fill="gray">\FOS\RestBundle\Controller\FOSRestController</text>
</g>
<!-- \\WebService\\WebServiceBundle\\Controller\\DefaultRestController&#45;&gt;\\FOS\\RestBundle\\Controller\\FOSRestController -->
<g id="edge21" class="edge"><title>\\WebService\\WebServiceBundle\\Controller\\DefaultRestController&#45;&gt;\\FOS\\RestBundle\\Controller\\FOSRestController</title>
<path fill="none" stroke="black" d="M788.753,-589.666C775.649,-585.041 763.297,-578.161 753.956,-568 643.677,-448.041 808.923,-318.348 689.956,-207 654.158,-173.494 601.388,-164.497 553.895,-164.816"/>
<polygon fill="none" stroke="black" points="553.776,-161.317 543.849,-165.02 553.918,-168.316 553.776,-161.317"/>
</g>
<!-- \\WebService\\WebServiceBundle\\Controller\\StuffController -->
<g id="node21" class="node"><title>\\WebService\\WebServiceBundle\\Controller\\StuffController</title>
<polygon fill="none" stroke="black" points="926.956,-778 808.956,-778 808.956,-742 926.956,-742 926.956,-778"/>
<text text-anchor="middle" x="867.956" y="-757.2" font-family="Courier,monospace" font-size="11.00">StuffController</text>
</g>
<!-- \\WebService\\WebServiceBundle\\Controller\\StuffController&#45;&gt;\\Symfony\\Bundle\\FrameworkBundle\\Controller\\Controller -->
<g id="edge22" class="edge"><title>\\WebService\\WebServiceBundle\\Controller\\StuffController&#45;&gt;\\Symfony\\Bundle\\FrameworkBundle\\Controller\\Controller</title>
<path fill="none" stroke="black" d="M808.758,-759.054C788.707,-755.712 767.828,-748.33 753.956,-733 611.914,-576.029 841.541,-408.776 689.956,-261 682.764,-253.989 674.835,-248.033 666.362,-242.998"/>
<polygon fill="none" stroke="black" points="667.799,-239.795 657.344,-238.08 664.447,-245.941 667.799,-239.795"/>
</g>
<!-- \\WebService\\WebServiceBundle\\Controller\\GuildController -->
<g id="node22" class="node"><title>\\WebService\\WebServiceBundle\\Controller\\GuildController</title>
<polygon fill="none" stroke="black" points="926.956,-724 808.956,-724 808.956,-688 926.956,-688 926.956,-724"/>
<text text-anchor="middle" x="867.956" y="-703.2" font-family="Courier,monospace" font-size="11.00">GuildController</text>
</g>
<!-- \\WebService\\WebServiceBundle\\Controller\\GuildController&#45;&gt;\\Symfony\\Bundle\\FrameworkBundle\\Controller\\Controller -->
<g id="edge23" class="edge"><title>\\WebService\\WebServiceBundle\\Controller\\GuildController&#45;&gt;\\Symfony\\Bundle\\FrameworkBundle\\Controller\\Controller</title>
<path fill="none" stroke="black" d="M808.899,-704.925C788.864,-701.569 767.959,-694.21 753.956,-679 626.662,-540.73 825.652,-391.035 689.956,-261 682.57,-253.922 674.43,-247.927 665.739,-242.875"/>
<polygon fill="none" stroke="black" points="667.342,-239.763 656.873,-238.132 664.04,-245.935 667.342,-239.763"/>
</g>
<!-- \\WebService\\WebServiceBundle\\Controller\\PersoController -->
<g id="node23" class="node"><title>\\WebService\\WebServiceBundle\\Controller\\PersoController</title>
<polygon fill="none" stroke="black" points="926.956,-670 808.956,-670 808.956,-634 926.956,-634 926.956,-670"/>
<text text-anchor="middle" x="867.956" y="-649.2" font-family="Courier,monospace" font-size="11.00">PersoController</text>
</g>
<!-- \\WebService\\WebServiceBundle\\Controller\\PersoController&#45;&gt;\\Symfony\\Bundle\\FrameworkBundle\\Controller\\Controller -->
<g id="edge24" class="edge"><title>\\WebService\\WebServiceBundle\\Controller\\PersoController&#45;&gt;\\Symfony\\Bundle\\FrameworkBundle\\Controller\\Controller</title>
<path fill="none" stroke="black" d="M808.787,-650.707C788.861,-647.31 768.057,-639.981 753.956,-625 641.373,-505.392 809.802,-373.33 689.956,-261 682.492,-254.004 674.288,-248.076 665.547,-243.078"/>
<polygon fill="none" stroke="black" points="667.113,-239.947 656.634,-238.384 663.852,-246.14 667.113,-239.947"/>
</g>
<!-- \\WebService\\WebServiceBundle\\Controller\\HelmetController -->
<g id="node24" class="node"><title>\\WebService\\WebServiceBundle\\Controller\\HelmetController</title>
<polygon fill="none" stroke="black" points="930.456,-994 805.456,-994 805.456,-958 930.456,-958 930.456,-994"/>
<text text-anchor="middle" x="867.956" y="-973.2" font-family="Courier,monospace" font-size="11.00">HelmetController</text>
</g>
<!-- \\WebService\\WebServiceBundle\\Controller\\HelmetController&#45;&gt;\\Symfony\\Bundle\\FrameworkBundle\\Controller\\Controller -->
<g id="edge25" class="edge"><title>\\WebService\\WebServiceBundle\\Controller\\HelmetController&#45;&gt;\\Symfony\\Bundle\\FrameworkBundle\\Controller\\Controller</title>
<path fill="none" stroke="black" d="M805.168,-974.796C786.104,-971.236 766.776,-963.78 753.956,-949 653.344,-833.007 797.628,-370.471 689.956,-261 682.969,-253.896 675.229,-247.858 666.93,-242.75"/>
<polygon fill="none" stroke="black" points="668.516,-239.627 658.087,-237.759 665.075,-245.723 668.516,-239.627"/>
</g>
<!-- \\WebService\\WebServiceBundle\\DependencyInjection\\Configuration -->
<g id="node25" class="node"><title>\\WebService\\WebServiceBundle\\DependencyInjection\\Configuration</title>
<polygon fill="none" stroke="black" points="919.956,-536 815.956,-536 815.956,-500 919.956,-500 919.956,-536"/>
<text text-anchor="middle" x="867.956" y="-515.2" font-family="Courier,monospace" font-size="11.00">Configuration</text>
</g>
<!-- \\Symfony\\Component\\Config\\Definition\\ConfigurationInterface -->
<g id="node40" class="node"><title>\\Symfony\\Component\\Config\\Definition\\ConfigurationInterface</title>
<ellipse fill="none" stroke="black" cx="442.978" cy="-126" rx="237.758" ry="18"/>
<text text-anchor="middle" x="442.978" y="-122.3" font-family="Times,serif" font-size="14.00" fill="gray">\Symfony\Component\Config\Definition\ConfigurationInterface</text>
</g>
<!-- \\WebService\\WebServiceBundle\\DependencyInjection\\Configuration&#45;&gt;\\Symfony\\Component\\Config\\Definition\\ConfigurationInterface -->
<g id="edge26" class="edge"><title>\\WebService\\WebServiceBundle\\DependencyInjection\\Configuration&#45;&gt;\\Symfony\\Component\\Config\\Definition\\ConfigurationInterface</title>
<path fill="none" stroke="black" stroke-dasharray="1,5" d="M815.872,-517.653C793.97,-514.814 769.826,-507.64 753.956,-491 648.438,-380.357 802.19,-256.824 689.956,-153 683.914,-147.41 677.398,-142.506 670.513,-138.216"/>
<polygon fill="none" stroke="black" points="672.019,-135.045 661.604,-133.105 668.536,-141.117 672.019,-135.045"/>
</g>
<!-- \\WebService\\WebServiceBundle\\DependencyInjection\\WebServiceWebServiceExtension -->
<g id="node26" class="node"><title>\\WebService\\WebServiceBundle\\DependencyInjection\\WebServiceWebServiceExtension</title>
<polygon fill="none" stroke="black" points="973.956,-482 761.956,-482 761.956,-446 973.956,-446 973.956,-482"/>
<text text-anchor="middle" x="867.956" y="-461.2" font-family="Courier,monospace" font-size="11.00">WebServiceWebServiceExtension</text>
</g>
<!-- \\Symfony\\Component\\HttpKernel\\DependencyInjection\\Extension -->
<g id="node41" class="node"><title>\\Symfony\\Component\\HttpKernel\\DependencyInjection\\Extension</title>
<ellipse fill="none" stroke="black" cx="442.978" cy="-72" rx="246.956" ry="18"/>
<text text-anchor="middle" x="442.978" y="-68.3" font-family="Times,serif" font-size="14.00" fill="gray">\Symfony\Component\HttpKernel\DependencyInjection\Extension</text>
</g>
<!-- \\WebService\\WebServiceBundle\\DependencyInjection\\WebServiceWebServiceExtension&#45;&gt;\\Symfony\\Component\\HttpKernel\\DependencyInjection\\Extension -->
<g id="edge27" class="edge"><title>\\WebService\\WebServiceBundle\\DependencyInjection\\WebServiceWebServiceExtension&#45;&gt;\\Symfony\\Component\\HttpKernel\\DependencyInjection\\Extension</title>
<path fill="none" stroke="black" d="M761.642,-448.585C758.923,-446.6 756.349,-444.412 753.956,-442 644.731,-331.917 803.652,-204.459 689.956,-99 684.434,-93.8781 678.515,-89.3312 672.279,-85.3044"/>
<polygon fill="none" stroke="black" points="673.969,-82.2375 663.586,-80.1305 670.389,-88.2527 673.969,-82.2375"/>
</g>
<!-- \\WebService\\WebServiceBundle\\Entity\\BaseEntity -->
<g id="node27" class="node"><title>\\WebService\\WebServiceBundle\\Entity\\BaseEntity</title>
<polygon fill="none" stroke="black" points="124,-2145 40,-2145 40,-2109 124,-2109 124,-2145"/>
<text text-anchor="middle" x="82" y="-2124.2" font-family="Courier,monospace" font-size="11.00">BaseEntity</text>
</g>
<!-- \\WebService\\WebServiceBundle\\Entity\\Boot -->
<g id="node28" class="node"><title>\\WebService\\WebServiceBundle\\Entity\\Boot</title>
<polygon fill="none" stroke="black" points="894.956,-2145 840.956,-2145 840.956,-2109 894.956,-2109 894.956,-2145"/>
<text text-anchor="middle" x="867.956" y="-2124.2" font-family="Courier,monospace" font-size="11.00">Boot</text>
</g>
<!-- \\WebService\\WebServiceBundle\\Entity\\Stuff -->
<g id="node29" class="node"><title>\\WebService\\WebServiceBundle\\Entity\\Stuff</title>
<polygon fill="none" stroke="black" points="469.978,-2118 415.978,-2118 415.978,-2082 469.978,-2082 469.978,-2118"/>
<text text-anchor="middle" x="442.978" y="-2097.2" font-family="Courier,monospace" font-size="11.00">Stuff</text>
</g>
<!-- \\WebService\\WebServiceBundle\\Entity\\Boot&#45;&gt;\\WebService\\WebServiceBundle\\Entity\\Stuff -->
<g id="edge29" class="edge"><title>\\WebService\\WebServiceBundle\\Entity\\Boot&#45;&gt;\\WebService\\WebServiceBundle\\Entity\\Stuff</title>
<path fill="none" stroke="black" d="M840.816,-2125.33C768.184,-2120.7 563.796,-2107.65 480.25,-2102.32"/>
<polygon fill="none" stroke="black" points="480.416,-2098.82 470.214,-2101.67 479.97,-2105.8 480.416,-2098.82"/>
</g>
<!-- \\WebService\\WebServiceBundle\\Entity\\Stuff&#45;&gt;\\WebService\\WebServiceBundle\\Entity\\BaseEntity -->
<g id="edge30" class="edge"><title>\\WebService\\WebServiceBundle\\Entity\\Stuff&#45;&gt;\\WebService\\WebServiceBundle\\Entity\\BaseEntity</title>
<path fill="none" stroke="black" d="M415.872,-2101.96C356.811,-2106.41 212.045,-2117.29 134.319,-2123.14"/>
<polygon fill="none" stroke="black" points="133.978,-2119.66 124.269,-2123.9 134.503,-2126.64 133.978,-2119.66"/>
</g>
<!-- \\WebService\\WebServiceBundle\\Entity\\Guild -->
<g id="node30" class="node"><title>\\WebService\\WebServiceBundle\\Entity\\Guild</title>
<polygon fill="none" stroke="black" points="469.978,-2226 415.978,-2226 415.978,-2190 469.978,-2190 469.978,-2226"/>
<text text-anchor="middle" x="442.978" y="-2205.2" font-family="Courier,monospace" font-size="11.00">Guild</text>
</g>
<!-- \\WebService\\WebServiceBundle\\Entity\\Guild&#45;&gt;\\WebService\\WebServiceBundle\\Entity\\BaseEntity -->
<g id="edge31" class="edge"><title>\\WebService\\WebServiceBundle\\Entity\\Guild&#45;&gt;\\WebService\\WebServiceBundle\\Entity\\BaseEntity</title>
<path fill="none" stroke="black" d="M415.937,-2207.99C370.435,-2207.34 273.882,-2203.19 196,-2181 170.499,-2173.73 143.65,-2161.14 122.525,-2149.94"/>
<polygon fill="none" stroke="black" points="124.006,-2146.76 113.545,-2145.08 120.675,-2152.91 124.006,-2146.76"/>
</g>
<!-- \\WebService\\WebServiceBundle\\Entity\\Register -->
<g id="node31" class="node"><title>\\WebService\\WebServiceBundle\\Entity\\Register</title>
<polygon fill="none" stroke="black" points="478.478,-2172 407.478,-2172 407.478,-2136 478.478,-2136 478.478,-2172"/>
<text text-anchor="middle" x="442.978" y="-2151.2" font-family="Courier,monospace" font-size="11.00">Register</text>
</g>
<!-- \\WebService\\WebServiceBundle\\Entity\\Register&#45;&gt;\\WebService\\WebServiceBundle\\Entity\\BaseEntity -->
<g id="edge32" class="edge"><title>\\WebService\\WebServiceBundle\\Entity\\Register&#45;&gt;\\WebService\\WebServiceBundle\\Entity\\BaseEntity</title>
<path fill="none" stroke="black" d="M407.232,-2151.39C343.624,-2146.6 208.205,-2136.42 134.089,-2130.84"/>
<polygon fill="none" stroke="black" points="134.286,-2127.35 124.051,-2130.09 133.761,-2134.33 134.286,-2127.35"/>
</g>
<!-- \\WebService\\WebServiceBundle\\Entity\\Helmet -->
<g id="node32" class="node"><title>\\WebService\\WebServiceBundle\\Entity\\Helmet</title>
<polygon fill="none" stroke="black" points="896.456,-2091 839.456,-2091 839.456,-2055 896.456,-2055 896.456,-2091"/>
<text text-anchor="middle" x="867.956" y="-2070.2" font-family="Courier,monospace" font-size="11.00">Helmet</text>
</g>
<!-- \\WebService\\WebServiceBundle\\Entity\\Helmet&#45;&gt;\\WebService\\WebServiceBundle\\Entity\\Stuff -->
<g id="edge33" class="edge"><title>\\WebService\\WebServiceBundle\\Entity\\Helmet&#45;&gt;\\WebService\\WebServiceBundle\\Entity\\Stuff</title>
<path fill="none" stroke="black" d="M839.203,-2074.77C765.252,-2079.49 563.447,-2092.37 480.411,-2097.67"/>
<polygon fill="none" stroke="black" points="479.954,-2094.2 470.198,-2098.33 480.4,-2101.18 479.954,-2094.2"/>
</g>
<!-- \\WebService\\WebServiceBundle\\Entity\\Perso -->
<g id="node33" class="node"><title>\\WebService\\WebServiceBundle\\Entity\\Perso</title>
<polygon fill="none" stroke="black" points="469.978,-2064 415.978,-2064 415.978,-2028 469.978,-2028 469.978,-2064"/>
<text text-anchor="middle" x="442.978" y="-2043.2" font-family="Courier,monospace" font-size="11.00">Perso</text>
</g>
<!-- \\WebService\\WebServiceBundle\\Entity\\Perso&#45;&gt;\\WebService\\WebServiceBundle\\Entity\\BaseEntity -->
<g id="edge34" class="edge"><title>\\WebService\\WebServiceBundle\\Entity\\Perso&#45;&gt;\\WebService\\WebServiceBundle\\Entity\\BaseEntity</title>
<path fill="none" stroke="black" d="M415.937,-2046.01C370.435,-2046.66 273.882,-2050.81 196,-2073 170.499,-2080.27 143.65,-2092.86 122.525,-2104.06"/>
<polygon fill="none" stroke="black" points="120.675,-2101.09 113.545,-2108.92 124.006,-2107.24 120.675,-2101.09"/>
</g>
<!-- \\WebService\\WebServiceBundle\\PersoDbTest -->
<g id="node34" class="node"><title>\\WebService\\WebServiceBundle\\PersoDbTest</title>
<polygon fill="none" stroke="black" points="913.456,-1066 822.456,-1066 822.456,-1030 913.456,-1030 913.456,-1066"/>
<text text-anchor="middle" x="867.956" y="-1045.2" font-family="Courier,monospace" font-size="11.00">PersoDbTest</text>
</g>
<!-- \\WebService\\WebServiceBundle\\PersoDbTest&#45;&gt;\\Symfony\\Bundle\\FrameworkBundle\\Test\\WebTestCase -->
<g id="edge7" class="edge"><title>\\WebService\\WebServiceBundle\\PersoDbTest&#45;&gt;\\Symfony\\Bundle\\FrameworkBundle\\Test\\WebTestCase</title>
<path fill="none" stroke="black" d="M822.184,-1051.21C798.465,-1050.32 770.827,-1044.7 753.956,-1026 647.676,-908.226 801.029,-428.266 689.956,-315 654.288,-278.627 598.886,-270.157 549.685,-271.545"/>
<polygon fill="none" stroke="black" points="549.458,-268.051 539.613,-271.966 549.751,-275.045 549.458,-268.051"/>
</g>
<!-- \\WebService\\WebServiceBundle\\WebServiceWebServiceBundle -->
<g id="node35" class="node"><title>\\WebService\\WebServiceBundle\\WebServiceWebServiceBundle</title>
<polygon fill="none" stroke="black" points="963.956,-428 771.956,-428 771.956,-392 963.956,-392 963.956,-428"/>
<text text-anchor="middle" x="867.956" y="-407.2" font-family="Courier,monospace" font-size="11.00">WebServiceWebServiceBundle</text>
</g>
<!-- \\Symfony\\Component\\HttpKernel\\Bundle\\Bundle -->
<g id="node42" class="node"><title>\\Symfony\\Component\\HttpKernel\\Bundle\\Bundle</title>
<ellipse fill="none" stroke="black" cx="442.978" cy="-18" rx="187.367" ry="18"/>
<text text-anchor="middle" x="442.978" y="-14.3" font-family="Times,serif" font-size="14.00" fill="gray">\Symfony\Component\HttpKernel\Bundle\Bundle</text>
</g>
<!-- \\WebService\\WebServiceBundle\\WebServiceWebServiceBundle&#45;&gt;\\Symfony\\Component\\HttpKernel\\Bundle\\Bundle -->
<g id="edge28" class="edge"><title>\\WebService\\WebServiceBundle\\WebServiceWebServiceBundle&#45;&gt;\\Symfony\\Component\\HttpKernel\\Bundle\\Bundle</title>
<path fill="none" stroke="black" d="M864.312,-391.628C854.434,-330.403 813.689,-132.274 689.956,-45 674.923,-34.3967 658.038,-26.5852 640.339,-20.9281"/>
<polygon fill="none" stroke="black" points="641.011,-17.4774 630.43,-18.0029 639.03,-24.191 641.011,-17.4774"/>
</g>
</g>
</svg>
